<svg xmlns="http://www.w3.org/2000/svg" viewBox="0 0 1600 900" role="img" aria-labelledby="title desc">
  <title id="title">Rangechem Manufacturing Facility</title>
  <desc id="desc">Abstract illustration for chemical manufacturing hero banner.</desc>
  <defs>
    <linearGradient id="bg" x1="0" y1="0" x2="1" y2="1">
      <stop offset="0%" stop-color="#0b2a4a" />
      <stop offset="100%" stop-color="#1f6fb6" />
    </linearGradient>
    <linearGradient id="tank" x1="0" y1="0" x2="0" y2="1">
      <stop offset="0%" stop-color="#dcefff" />
      <stop offset="100%" stop-color="#9ec6eb" />
    </linearGradient>
  </defs>

  <rect width="1600" height="900" fill="url(#bg)"/>
  <g opacity="0.22" fill="#ffffff">
    <circle cx="220" cy="150" r="90" />
    <circle cx="1500" cy="220" r="120" />
    <circle cx="1320" cy="760" r="160" />
  </g>

  <g transform="translate(220 230)">
    <rect x="0" y="180" width="1160" height="380" rx="24" fill="#163a61" opacity="0.55"/>
    <rect x="120" y="80" width="220" height="420" rx="40" fill="url(#tank)"/>
    <rect x="420" y="40" width="250" height="460" rx="44" fill="url(#tank)"/>
    <rect x="760" y="120" width="210" height="380" rx="36" fill="url(#tank)"/>
    <rect x="1040" y="180" width="100" height="320" rx="20" fill="url(#tank)"/>

    <rect x="140" y="20" width="12" height="80" fill="#9ec6eb"/>
    <rect x="520" y="0" width="12" height="60" fill="#9ec6eb"/>
    <rect x="810" y="60" width="12" height="60" fill="#9ec6eb"/>
    <rect x="1084" y="130" width="12" height="60" fill="#9ec6eb"/>

    <path d="M152 24 C 290 10, 380 16, 520 20" stroke="#d8ecff" stroke-width="8" fill="none" opacity="0.85"/>
    <path d="M532 4 C 675 6, 760 40, 812 66" stroke="#d8ecff" stroke-width="8" fill="none" opacity="0.85"/>
    <path d="M824 64 C 920 76, 1008 116, 1088 136" stroke="#d8ecff" stroke-width="8" fill="none" opacity="0.85"/>
  </g>
</svg>
